<svg width="128" height="132" viewBox="0 0 128 132" fill="none" xmlns="http://www.w3.org/2000/svg">
<g filter="url(#filter0_d)">
<path d="M86.46 62.004L124.821 23.6429C129.06 19.4044 129.06 12.5327 124.821 8.30084L119.707 3.18682C115.467 -1.053 108.596 -1.053 104.364 3.18682L66.004 41.5466L27.6429 3.17888C23.4044 -1.05963 16.5327 -1.05963 12.3008 3.17888L7.17888 8.29289C2.94037 12.5327 2.94037 19.4044 7.17888 23.6363L45.5466 62.004L7.18682 100.364C2.947 104.604 2.947 111.475 7.18682 115.707L12.3008 120.821C16.5393 125.06 23.411 125.06 27.6429 120.821L66.004 82.46L104.364 120.821C108.604 125.06 115.475 125.06 119.707 120.821L124.821 115.707C129.06 111.467 129.06 104.596 124.821 100.364L86.46 62.004Z" fill="#00BDFC"/>
<path d="M86.1065 61.6504L85.7529 62.004L86.1065 62.3575L124.468 100.717L124.468 100.718C128.511 104.754 128.511 111.309 124.468 115.354L119.354 120.468L119.353 120.468C115.317 124.511 108.762 124.511 104.717 120.468C104.717 120.468 104.717 120.468 104.717 120.468L66.3575 82.1065L66.004 81.7529L65.6504 82.1065L27.2893 120.468L27.2891 120.468C23.2527 124.511 16.6978 124.511 12.6544 120.468L7.54038 115.354L7.54005 115.353C3.49611 111.317 3.49563 104.762 7.54038 100.717L45.9001 62.3575L46.2537 62.004L45.9001 61.6504L7.53243 23.2827L7.53215 23.2824C3.48947 19.2461 3.48899 12.6912 7.53248 8.64639L12.6541 3.5327L12.6547 3.53215C16.6911 -0.510555 23.2459 -0.510963 27.2893 3.5324C27.2893 3.53241 27.2893 3.53242 27.2893 3.53243L65.6504 41.9001L66.0039 42.2537L66.3575 41.9001L104.717 3.54038L104.718 3.54005C108.754 -0.503893 115.309 -0.50437 119.354 3.54038L124.468 8.65439L124.468 8.65467C128.511 12.6911 128.511 19.2459 124.468 23.2893L86.1065 61.6504Z" stroke="black"/>
</g>
<defs>
<filter id="filter0_d" x="0" y="0" width="132" height="132" filterUnits="userSpaceOnUse" color-interpolation-filters="sRGB">
<feFlood flood-opacity="0" result="BackgroundImageFix"/>
<feColorMatrix in="SourceAlpha" type="matrix" values="0 0 0 0 0 0 0 0 0 0 0 0 0 0 0 0 0 0 127 0"/>
<feOffset dy="4"/>
<feGaussianBlur stdDeviation="2"/>
<feColorMatrix type="matrix" values="0 0 0 0 0 0 0 0 0 0 0 0 0 0 0 0 0 0 0.25 0"/>
<feBlend mode="normal" in2="BackgroundImageFix" result="effect1_dropShadow"/>
<feBlend mode="normal" in="SourceGraphic" in2="effect1_dropShadow" result="shape"/>
</filter>
</defs>
</svg>
